# xmcd
#
# Track frame offsets:
# 150
# 20906
# 38637
# 57471
# 75359
# 98421
# 117846
# 137620
# 155063
# 174157
#
# Disc length: 2580 seconds
#
# Revision: 1
# Processed by: cddbd v1.5.2PL0 Copyright (c) Steve Scherf et al.
# Submitted via: CedeCatalogueitor 2.6.0.6 http://personales.ya.com/cdcatalogueitor
#
DISCID=730a120a
DTITLE=Spunkfool - Happily Sinister
DYEAR=1900
DGENRE=
TTITLE0=Shiver
TTITLE1=Excusas 
TTITLE2=You Kill Me
TTITLE3=The Game
TTITLE4=Algo Sucio
TTITLE5=Sushi Dog
TTITLE6=Pasan Las Horas
TTITLE7=Upside Down
TTITLE8=We Can't Stop It
TTITLE9=I Will Lov You Until Your Man Gets Home
EXTD=
EXTT0=
EXTT1=
EXTT2=
EXTT3=
EXTT4=
EXTT5=
EXTT6=
EXTT7=
EXTT8=
EXTT9=
PLAYORDER=
